<?xml version="1.0" standalone="no"?>
<!DOCTYPE svg PUBLIC "-//W3C//DTD SVG 20010904//EN"
 "http://www.w3.org/TR/2001/REC-SVG-20010904/DTD/svg10.dtd">
<svg version="1.0" xmlns="http://www.w3.org/2000/svg"
 width="390.000000pt" height="390.000000pt" viewBox="0 0 390.000000 390.000000"
 preserveAspectRatio="xMidYMid meet">
<metadata>
Created by potrace 1.14, written by Peter Selinger 2001-2017
</metadata>
<g transform="translate(0.000000,390.000000) scale(0.100000,-0.100000)"
fill="#000000" stroke="none">
<path d="M1055 3096 c-32 -23 -3 -46 56 -46 l49 0 72 -143 71 -144 -24 -32
c-29 -39 -31 -103 -5 -143 41 -63 142 -75 197 -22 87 84 28 224 -94 224 -26 0
-36 5 -45 25 -11 24 -10 25 22 25 35 0 66 24 50 40 -5 5 -31 10 -59 12 l-50 3
-50 95 c-32 60 -59 99 -75 107 -33 17 -92 16 -115 -1z m379 -377 c56 -44 20
-139 -54 -139 -19 0 -37 10 -54 31 -29 34 -32 56 -12 84 13 19 15 18 32 -17
20 -42 37 -53 54 -33 8 10 7 21 -4 44 -9 16 -16 35 -16 41 0 16 25 12 54 -11z"/>
<path d="M2104 3075 c-9 -22 4 -35 37 -35 42 0 39 -32 -6 -53 -20 -10 -49 -38
-70 -71 -28 -41 -47 -58 -81 -71 -24 -9 -52 -29 -63 -44 -17 -23 -18 -29 -5
-51 21 -38 18 -80 -5 -80 -13 0 -21 9 -26 30 -13 60 -77 110 -141 110 -40 0
-94 -30 -115 -64 -25 -41 -25 -112 1 -153 49 -81 168 -84 230 -6 21 27 26 28
138 33 l116 5 16 52 c18 63 36 85 51 63 5 -8 6 -24 3 -35 -15 -49 -15 -84 0
-114 43 -82 171 -80 211 5 19 41 19 58 -1 100 -22 46 -65 68 -120 61 -29 -3
-47 0 -55 9 -17 21 -2 33 52 40 53 7 89 38 89 77 0 71 -57 158 -124 188 -50
23 -124 25 -132 4z m-293 -344 c41 -41 38 -61 -8 -61 -28 0 -42 6 -58 27 -24
29 -45 25 -45 -9 0 -37 38 -68 84 -68 l41 -1 -24 -19 c-73 -61 -180 24 -137
109 31 60 99 70 147 22z m515 -29 c26 -17 36 -53 24 -83 -14 -33 -50 -47 -89
-33 -28 10 -48 52 -38 79 6 14 11 12 33 -14 14 -17 30 -31 35 -31 21 0 21 33
0 61 l-22 29 23 0 c13 0 28 -4 34 -8z"/>
<path d="M2977 3083 c-15 -14 -6 -33 18 -39 16 -4 25 -13 25 -25 0 -15 -7 -19
-35 -19 -25 0 -44 -8 -61 -25 -23 -23 -32 -25 -120 -25 -87 0 -97 2 -114 23
-16 19 -27 22 -95 22 -62 0 -80 -3 -88 -17 -18 -28 16 -86 62 -106 38 -17 72
-53 55 -59 -5 -2 -24 -11 -43 -21 -99 -50 -105 -177 -12 -239 60 -41 145 -22
187 42 15 23 22 25 96 25 70 0 82 3 103 25 14 13 25 35 25 48 0 23 48 107 61
107 17 0 18 -35 2 -52 -13 -15 -18 -37 -18 -78 0 -63 20 -96 77 -126 87 -45
188 23 188 126 0 88 -69 148 -155 136 -33 -5 -44 -3 -48 8 -8 19 17 33 73 42
l42 7 -4 63 c-5 76 -25 109 -88 142 -42 21 -119 30 -133 15z m-289 -342 c12
-11 22 -21 22 -23 0 -1 -21 -3 -46 -3 -34 0 -49 -5 -60 -19 -18 -26 -18 -32 6
-56 14 -14 34 -20 68 -20 l47 -1 -24 -19 c-34 -29 -95 -27 -126 5 -55 54 -18
155 57 155 18 -1 43 -9 56 -19z m536 -12 c54 -64 17 -148 -66 -149 -55 0 -93
36 -93 89 0 63 18 71 50 22 15 -22 34 -41 41 -41 25 0 25 22 0 60 -14 22 -26
42 -26 45 0 3 15 5 34 5 26 0 41 -7 60 -31z"/>
<path d="M1995 3044 c-5 -1 -22 -5 -37 -8 -27 -6 -88 -51 -88 -66 0 -8 111
-60 129 -60 6 0 11 4 11 9 0 4 19 29 41 55 23 26 40 49 37 51 -6 6 -82 22 -93
19z"/>
<path d="M1015 2977 c-34 -19 -60 -23 -185 -27 -141 -5 -145 -6 -148 -27 -3
-22 0 -23 53 -23 54 0 59 -2 108 -49 l52 -49 24 19 c16 13 39 19 72 19 40 0
55 -5 83 -31 22 -19 38 -43 42 -65 5 -28 9 -32 20 -23 8 6 14 22 14 36 0 13
12 36 28 51 l28 27 -40 83 c-39 80 -41 82 -76 82 -19 -1 -53 -11 -75 -23z"/>
<path d="M1617 2993 c-12 -11 -8 -53 7 -82 18 -34 55 -51 126 -58 30 -3 69
-14 87 -24 l32 -18 36 36 c39 39 41 43 23 43 -7 0 -55 25 -107 55 -81 48 -100
55 -145 55 -29 0 -56 -3 -59 -7z"/>
<path d="M691 2772 c-38 -20 -71 -73 -71 -112 0 -73 73 -135 150 -127 55 6
110 59 110 106 0 33 32 48 52 24 33 -40 93 -35 124 11 45 70 -57 155 -116 96
-11 -11 -20 -24 -20 -29 0 -5 -9 -13 -21 -16 -15 -5 -29 0 -47 18 -56 51 -103
60 -161 29z m110 -50 l22 -19 -46 -12 c-35 -8 -47 -16 -47 -30 0 -25 17 -30
58 -19 42 12 49 5 28 -27 -41 -63 -146 -27 -146 51 0 24 56 74 83 74 14 0 35
-8 48 -18z"/>
<path d="M62 2485 c-53 -29 -52 -4 -52 -874 0 -614 3 -810 12 -819 19 -19 285
-17 304 2 12 12 14 109 14 620 0 333 3 606 8 606 7 0 52 -89 52 -105 0 -16 61
-133 75 -145 8 -7 15 -22 15 -33 0 -11 8 -30 18 -41 10 -12 27 -41 37 -66 11
-25 22 -47 25 -50 3 -3 14 -21 23 -41 9 -20 23 -42 32 -49 8 -7 15 -23 15 -36
0 -12 4 -25 9 -29 6 -3 22 -31 37 -63 16 -31 31 -59 34 -62 7 -7 43 -73 87
-160 20 -41 41 -76 45 -78 4 -2 8 -12 8 -22 0 -10 4 -20 8 -22 9 -3 62 -110
62 -125 0 -15 62 -69 98 -84 17 -8 32 -17 32 -21 0 -5 68 -8 150 -8 83 0 150
4 150 8 0 5 10 14 23 21 48 25 47 15 47 862 0 439 -3 804 -6 813 -5 14 -28 16
-154 16 -111 0 -150 -3 -159 -13 -8 -10 -12 -182 -13 -578 l-3 -564 -53 105
c-28 58 -52 112 -52 121 0 9 -7 22 -15 29 -8 7 -44 72 -81 146 -36 74 -69 136
-74 139 -4 3 -38 64 -75 137 -89 177 -109 212 -117 216 -5 2 -8 12 -8 22 0 10
-4 20 -8 22 -4 2 -20 28 -35 59 -15 31 -36 64 -47 74 -11 10 -20 24 -20 31 0
7 -21 22 -46 34 -41 18 -66 20 -213 19 -115 -1 -173 -5 -189 -14z"/>
<path d="M1548 2486 c-10 -7 -18 -18 -18 -25 0 -6 -4 -11 -10 -11 -7 0 -10
-274 -10 -803 l0 -803 33 -32 33 -32 463 0 463 0 22 27 c39 51 30 231 -14 258
-5 3 -148 7 -317 8 l-308 2 -3 233 -2 232 263 0 c308 0 294 -5 304 104 6 65
-7 132 -30 164 -7 9 -74 12 -273 12 l-264 0 0 198 0 197 292 -3 c276 -2 295
-1 325 17 27 17 32 27 38 76 9 65 -1 163 -17 182 -16 19 -945 19 -970 -1z"/>
<path d="M2589 2483 c-20 -23 -19 -210 0 -246 l14 -27 221 -2 221 -3 3 -689 2
-690 22 -23 c21 -22 28 -23 171 -23 131 0 151 2 163 17 11 15 13 151 14 716
l0 697 228 0 227 0 13 27 c15 33 17 233 2 233 -5 0 -10 7 -10 15 0 13 -78 15
-639 15 -582 0 -640 -1 -652 -17z"/>
</g>
</svg>
